<svg height="24" width='24' viewBox="0 0 513 522" fill="none" xmlns="http://www.w3.org/2000/svg">
<path d="M351.299 338.5C334.699 353.2 314.099 371.5 276.499 371.5H253.999C226.799 371.5 202.099 361.6 184.399 343.7C167.099 326.2 157.6 302.3 157.6 276.3V245.6C157.6 219.6 167.099 195.7 184.399 178.2C202.099 160.3 226.799 150.4 253.999 150.4H276.399C313.999 150.4 334.6 168.7 351.2 183.4C368.4 198.6 383.299 211.8 422.799 211.8C428.999 211.8 434.999 211.3 440.799 210.4C440.799 210.3 440.7 210.2 440.7 210.1C438.3 204.3 435.599 198.5 432.399 193L405.899 147.2C381.599 105.1 336.7 79.2 288.2 79.2H235.299C186.699 79.2 141.8 105.1 117.6 147.2L91.0995 193C66.7995 235.1 66.7995 286.9 91.0995 329L117.6 374.8C141.9 416.9 186.799 442.8 235.299 442.8H288.2C336.8 442.8 381.699 416.9 405.899 374.8L432.399 329C435.599 323.5 438.4 317.7 440.7 311.9C440.7 311.8 440.799 311.7 440.799 311.6C434.899 310.7 428.899 310.2 422.799 310.2C383.299 310.1 368.499 323.2 351.299 338.5Z" fill="#CCCCCC"/>
<path d="M276.5 178.3H254C212.7 178.3 185.5 207.8 185.5 245.6V276.3C185.5 314.1 212.7 343.6 254 343.6H276.399C336.599 343.6 331.899 282.2 422.899 282.2C431.599 282.2 440.2 283 448.6 284.6C451.4 269 451.4 253 448.6 237.4C440.2 239 431.599 239.8 422.899 239.8C331.999 239.7 336.7 178.3 276.5 178.3Z" fill="#CCCCCC"/>
<path d="M500.899 307.1C485.399 295.6 467.5 288.2 448.6 284.6C448.6 284.8 448.6 284.9 448.5 285.1C446.9 294.1 444.399 303 440.899 311.6C456.799 314.2 471.5 320.2 484.1 329.4C484.1 329.5 484 329.7 484 329.8C476.799 353.3 465.8 375.5 451.6 395.7C437.5 415.6 420.399 433.2 400.899 447.8C360.299 478.2 312 494.3 261.1 494.3C229.6 494.3 199.099 488.1 170.299 476C142.499 464.3 117.6 447.4 96.1997 426C74.7997 404.6 57.9997 379.6 46.1997 351.9C33.9997 323.2 27.8994 292.6 27.8994 261.1C27.8994 229.6 34.0997 199.1 46.1997 170.3C57.8997 142.5 74.7997 117.6 96.1997 96.2C117.6 74.7999 142.599 58 170.299 46.2C198.999 34 229.6 27.9 261.1 27.9C312 27.9 360.299 44 400.899 74.4C420.399 89.1 437.5 106.6 451.6 126.5C465.9 146.7 476.799 168.8 484 192.4C484 192.5 484.1 192.7 484.1 192.8C471.5 202 456.799 208 440.899 210.6C444.299 219.2 446.9 228.1 448.5 237.1C448.5 237.2 448.5 237.4 448.6 237.5C467.5 234 485.299 226.5 500.899 215C515.799 204 512.9 191.5 510.6 184.1C477.8 77.5 378.5 0 261.1 0C116.9 0 0.0996094 116.9 0.0996094 261C0.0996094 405.1 117 522 261.1 522C378.5 522 477.8 444.5 510.6 337.9C512.9 330.5 515.799 318.1 500.899 307.1Z" fill="#CCCCCC"/>
</svg>
