<svg width="24" height="24" viewBox="0 0 28 28" fill="none" xmlns="http://www.w3.org/2000/svg">
    <path fill-rule="evenodd" clip-rule="evenodd" d="M3.805 12.138c0-4.993 3.876-8.952 8.552-8.952 4.675 0 8.55 3.96 8.55 8.952s-3.875 8.951-8.55 8.951c-4.676 0-8.552-3.959-8.552-8.951zM12.357.628C6.174.629 1.248 5.83 1.248 12.139c0 6.307 4.926 11.508 11.109 11.508 2.551 0 4.89-.886 6.755-2.37l4.962 5.164.886.922 1.844-1.771-.886-.922-4.998-5.201a11.735 11.735 0 002.545-7.33c0-6.308-4.926-11.51-11.108-11.51z" fill="#666" />
    <rect x="6.521" y="9.261" width="9" height="9" rx="4.5" fill="#3724E5" />
</svg>
