<svg width="26" height="28" viewBox="0 0 26 28" fill="none" xmlns="http://www.w3.org/2000/svg">
<path fill-rule="evenodd" clip-rule="evenodd" d="M2.80522 12.1378C2.80522 7.14539 6.68137 3.18621 11.3565 3.18621C16.0315 3.18621 19.9077 7.14539 19.9077 12.1378C19.9077 17.1303 16.0315 21.0894 11.3565 21.0894C6.68137 21.0894 2.80522 17.1303 2.80522 12.1378ZM11.3565 0.629028C5.17382 0.629028 0.248047 5.83028 0.248047 12.1378C0.248047 18.4454 5.17382 23.6466 11.3565 23.6466C13.9084 23.6466 16.2462 22.7605 18.1119 21.2762L23.074 26.4405L23.9599 27.3624L25.8038 25.5907L24.9179 24.6687L19.9204 19.4676C21.5128 17.4701 22.4649 14.9109 22.4649 12.1378C22.4649 5.83028 17.5391 0.629028 11.3565 0.629028Z" fill="#787878"/>
</svg>
