<svg width="239" height="239" viewBox="0 0 239 239" fill="none" xmlns="http://www.w3.org/2000/svg">
    <path d="M88.4721 0.506816L86.9978 -1.00415C54.9361 -0.950183 -9.61861 -0.781554 -9.61861 -0.781554V108.986C-8.36429 109.478 -6.70948 111.393 -4.34228 116.234C-0.89629 123.282 0.738148 126.585 1.15962 127.353C2.07803 129.026 4.78588 132.218 6.24952 133.353C7.12941 134.035 8.14378 134.887 8.50338 135.246C9.04987 135.791 12.4375 137.199 14.2891 137.651C18.268 138.62 21.29 138.171 24.9188 136.474C25.6247 136.144 26.3632 135.874 26.5595 135.874C29.2216 135.874 35.2839 129.597 39.3209 122.66C44.2545 114.184 53.1709 111.77 62.9207 116.269C63.5174 116.544 64.5119 116.838 65.1307 116.921C65.7498 117.005 66.6113 117.254 67.0454 117.475C69.3094 118.627 74.8653 119.881 77.7042 119.881C79.511 119.881 79.689 119.764 81.9555 117.084C83.858 114.833 83.9922 109.249 82.2078 106.57C81.6824 105.782 81.2525 105.056 81.2525 104.958C81.2525 104.246 75.3417 97.4977 68.7951 90.7352C68.3481 90.2734 67.645 88.906 67.2327 87.6967C64.3256 79.1676 65.525 74.8027 72.6215 68.084C75.7461 65.1261 82.2068 60.93 82.7653 61.4961C82.8563 61.5882 83.1404 61.4872 83.3971 61.2716C84.127 60.6578 89.3893 60.787 90.7029 61.4507C91.2889 61.7469 91.8982 61.989 92.057 61.989C93.8045 61.989 102.405 71.2514 102.405 73.1328C102.405 73.255 102.739 73.8563 103.146 74.4688C107.3 80.7139 107.289 111.243 122.826 111.004C149.35 110.597 135.083 53.0792 110.14 45.0362C108.925 44.6444 107.684 44.1963 107.382 44.0408C107.081 43.885 106.636 43.7577 106.394 43.7577C106.153 43.7577 105.779 43.5419 105.562 43.278C105.346 43.0141 104.901 42.7982 104.572 42.7982C104.038 42.7982 102.821 42.2596 102.405 41.8387C102.227 41.6586 100.731 40.8104 98.6166 39.6903C96.8139 38.7355 93.5437 35.8086 92.9335 34.6037C92.6768 34.0971 92.0987 33.0339 91.6488 32.2414C89.407 28.2906 88.9024 22.0021 90.379 16.4109C92.0832 9.95763 91.2974 3.40239 88.4721 0.506816Z" fill="url(#paint0_linear_1046_2625)" />
    <path d="M57.8898 178.799C57.8898 179.561 55.6309 183.897 54.5082 185.29C45.9626 195.892 37.9164 197.562 24.1592 202.295C-15.5022 215.934 -9.75136 148.044 -9.75136 238.554L229.795 238.145C249.596 51.7398 240.144 235.956 157.266 223.157C154.247 222.691 149.375 217.234 148.8 213.675C148.031 208.919 148.561 200.022 149.759 197.576C151.062 194.916 152.927 191.795 153.564 191.207C153.66 191.119 154.391 190.184 155.19 189.128C156.58 187.292 163.406 180.521 165.39 179.011C165.91 178.614 167.268 177.346 168.406 176.192C169.544 175.039 171.177 173.531 172.037 172.841C232.048 124.643 129.989 30.784 150.693 108.207C150.834 108.735 151.24 110.102 151.596 111.245C156.44 126.81 161.959 155.613 149.397 169.921C149.25 170.089 149.13 170.444 149.13 170.711C149.13 171.31 145.382 179.052 144.809 179.635C144.581 179.868 144.395 180.307 144.395 180.611C144.395 180.915 144.271 181.3 144.119 181.468C143.886 181.724 142.882 183.577 140.905 187.401C140.687 187.823 140.389 188.384 140.244 188.648C137.038 194.464 136.028 197.839 136.031 202.722L136.033 206.72L137.353 209.278C140.784 215.931 140.897 220.594 137.701 223.592C136.998 224.251 136.334 224.797 136.225 224.804C136.117 224.811 135.536 225.243 134.935 225.764C134.334 226.284 133.517 226.71 133.12 226.71C132.723 226.71 132.398 226.836 132.398 226.99C132.398 227.561 129.598 228.015 126.034 228.021C123.435 228.026 120.3 227.281 113.771 225.108C109.16 223.574 107.556 223.394 102.535 223.844C94.0555 224.605 90.4093 223.808 87.2055 220.493C82.7912 215.926 82.6893 212.26 86.7935 205.675C89.6523 201.089 91.4825 198.988 102.195 187.995C107.259 182.799 112.326 177.49 113.455 176.198C114.584 174.905 115.705 173.641 115.947 173.389C116.477 172.835 117.875 170.774 117.875 170.546C117.875 170.456 118.492 169.419 119.245 168.241L119.527 167.8C127.353 155.573 145.44 127.313 129.274 116.893C128.499 116.393 127.57 115.913 127.211 115.826C125.654 115.449 121.577 115.34 120.932 115.658C79.4861 136.085 102.002 141.7 83.1515 167.698C83.0242 167.874 82.8294 168.5 82.7192 169.09C82.4162 170.708 80.2551 174.969 79.3695 175.694C77.6306 177.12 77.2079 177.213 73.007 177.101C72.726 177.094 72.0005 176.558 71.3947 175.911C57.8668 161.465 94.5771 134.818 69.5424 123.355C68.69 122.965 67.9926 122.528 67.9926 122.383C67.9926 122.238 67.7258 122.12 67.3997 122.12C67.0735 122.12 66.2568 121.882 65.5843 121.591C64.9119 121.3 64.0778 121.018 63.7305 120.964C62.1374 120.717 61.7993 120.634 61.4245 120.4C60.8935 120.067 52.8422 120.497 52.1034 120.897C51.7858 121.069 51.3075 121.125 51.0401 121.021C50.1871 120.689 46.9198 121.871 44.3256 123.449C42.8111 124.371 39.3844 128.113 38.6608 129.637C38.2427 130.516 37.7802 131.452 37.6328 131.716C37.4851 131.979 37.2814 132.411 37.1795 132.675C37.0778 132.939 36.6326 134.018 36.19 135.074C28.312 153.864 56.425 150.048 59.4927 164.711C60.2267 168.221 59.3348 177.659 58.2336 178.031C58.0445 178.094 57.8898 178.44 57.8898 178.799Z" fill="url(#paint1_linear_1046_2625)" />
    <path d="M140.974 20.1064C139.174 17.8377 133.758 13.3541 132.014 12.6895C121.869 8.82422 105.23 17.9229 100.826 24.1844C98.771 27.1059 98.6125 30.0082 100.303 33.7753C100.99 35.3083 103.871 37.8921 105.247 38.2087C105.681 38.3088 106.609 38.5781 107.308 38.8075C108.008 39.0371 109.926 39.3135 111.571 39.4219C185.058 44.2735 201.316 99.203 193.919 146.908C191.581 161.986 203.774 157.071 204.72 144.35C205.102 139.211 205.757 134.052 206.068 133.736C206.173 133.63 206.471 133.722 206.731 133.94C207.469 134.561 211.168 134.093 212.216 133.247C213.86 131.92 214.154 131.503 214.502 129.999C214.711 129.096 215.015 128.096 215.178 127.776C215.341 127.456 215.541 126.161 215.621 124.897C215.702 123.634 215.84 122.168 215.927 121.64C216.619 117.453 207.921 115.353 206.731 104.958C205.422 93.5192 207.718 74.1147 199.491 61.3202C195.84 55.6429 195.058 54.6396 192.158 51.9138C190.473 50.3306 188.513 48.4217 187.802 47.672C186.276 46.0626 183.776 41.1331 183.221 38.6402C183.005 37.6727 182.73 36.7371 182.61 36.5612C182.489 36.3853 182.21 35.5937 181.989 34.8021C181.768 34.0104 181.282 32.859 180.909 32.2433C180.536 31.6276 179.933 30.4761 179.568 29.6845C174.512 18.7045 154.443 8.43997 150.104 14.614C148.561 16.8088 150.448 22.1547 153.991 25.6314C155.051 26.6712 156.916 28.5123 158.135 29.7229C159.354 30.9332 160.497 31.9234 160.674 31.9234C160.852 31.9234 161.615 32.5062 162.368 33.2188C163.123 33.9311 164.253 34.7972 164.88 35.1433C165.508 35.4897 166.66 36.2685 167.442 36.8743C168.223 37.4804 169.431 38.2682 170.125 38.6252C177.289 42.3063 180.354 48.4314 174.971 48.3073C172.617 48.2529 171.685 47.6049 166.305 42.2865C159.421 35.4814 154.313 30.9575 147.595 25.7162C144.46 23.2697 141.48 20.7451 140.974 20.1064Z" fill="url(#paint2_linear_1046_2625)" />
    <path d="M42.7751 168.945C42.6229 168.436 42.323 167.227 42.1086 166.259C32.2962 122.01 -35.7241 158.083 13.8481 169.587C19.2144 170.832 28.7703 175.771 33.1064 179.046C34.7242 180.268 39.5514 178.78 41.3838 176.494C42.8509 174.665 43.4731 171.288 42.7751 168.945Z" fill="url(#paint3_linear_1046_2625)" />
    <defs>
        <linearGradient id="paint0_linear_1046_2625" x1="29.8523" y1="-101.311" x2="-16.595" y2="174.353" gradientUnits="userSpaceOnUse">
            <stop stop-color="#7A7A7A" />
            <stop offset="1" stop-color="#121212" />
        </linearGradient>
        <linearGradient id="paint1_linear_1046_2625" x1="29.8523" y1="-101.311" x2="-16.595" y2="174.353" gradientUnits="userSpaceOnUse">
            <stop stop-color="#7A7A7A" />
            <stop offset="1" stop-color="#121212" />
        </linearGradient>
        <linearGradient id="paint2_linear_1046_2625" x1="29.8523" y1="-101.311" x2="-16.595" y2="174.353" gradientUnits="userSpaceOnUse">
            <stop stop-color="#7A7A7A" />
            <stop offset="1" stop-color="#121212" />
        </linearGradient>
        <linearGradient id="paint3_linear_1046_2625" x1="29.8523" y1="-101.311" x2="-16.595" y2="174.353" gradientUnits="userSpaceOnUse">
            <stop stop-color="#7A7A7A" />
            <stop offset="1" stop-color="#121212" />
        </linearGradient>
    </defs>
</svg>