<?xml version="1.0" encoding="utf-8"?>
<svg viewBox="208.39 196.993 24 24" height="24" width="24" xmlns="http://www.w3.org/2000/svg">
  <path d="M 220.398 196.993 C 219.872 196.993 219.346 197.186 218.917 197.574 L 209.088 206.464 C 208.412 207.076 208.181 208.128 208.601 208.967 C 209.179 210.122 210.541 210.363 211.42 209.567 L 220.102 201.715 C 220.273 201.56 220.522 201.56 220.693 201.715 L 229.375 209.567 C 229.721 209.88 230.141 210.032 230.559 210.032 C 231.101 210.032 231.638 209.776 232.005 209.28 C 232.641 208.418 232.46 207.145 231.678 206.437 L 230.56 205.426 L 230.56 200.327 C 230.56 199.59 230.009 198.993 229.329 198.993 L 228.097 198.993 C 227.417 198.993 226.865 199.59 226.865 200.327 L 226.865 202.084 L 221.878 197.574 C 221.45 197.186 220.924 196.993 220.398 196.993 Z M 220.396 203.456 L 210.234 212.644 L 210.234 216.993 C 210.234 219.202 211.888 220.993 213.929 220.993 L 226.863 220.993 C 228.904 220.993 230.558 219.202 230.558 216.993 L 230.558 212.644 L 220.396 203.456 Z M 218.55 210.993 L 222.246 210.993 C 222.756 210.993 223.169 211.44 223.169 211.993 L 223.169 216.993 L 217.626 216.993 L 217.626 211.993 C 217.626 211.44 218.04 210.993 218.55 210.993 Z" style="fill: rgb(212, 212, 212);"/>
</svg>
