<?xml version="1.0" encoding="utf-8"?>
<svg viewBox="143.883 155.712 28 28" xmlns="http://www.w3.org/2000/svg" height="28" width="28">
  <path id="path_1_" d="M 168.607 183.712 C 166.92 183.712 165.525 182.429 165.35 180.787 L 161.14 180.787 C 160.965 182.429 159.572 183.712 157.883 183.712 C 156.076 183.712 154.607 182.242 154.607 180.436 C 154.607 178.749 155.89 177.354 157.532 177.179 L 157.532 172.969 C 155.89 172.794 154.607 171.401 154.607 169.712 C 154.607 168.024 155.89 166.63 157.532 166.455 L 157.532 162.245 C 156.005 162.082 154.79 160.865 154.626 159.339 L 150.416 159.339 C 150.24 160.981 148.846 162.264 147.159 162.264 C 145.352 162.264 143.883 160.794 143.883 158.988 C 143.883 157.181 145.352 155.712 147.159 155.712 C 148.846 155.712 150.24 156.995 150.416 158.637 L 154.626 158.637 C 154.801 156.995 156.195 155.712 157.883 155.712 C 159.69 155.712 161.159 157.181 161.159 158.988 C 161.159 160.675 159.876 162.07 158.234 162.245 L 158.234 166.455 C 159.876 166.63 161.159 168.024 161.159 169.712 C 161.159 171.4 159.876 172.794 158.234 172.969 L 158.234 177.179 C 159.761 177.342 160.977 178.559 161.14 180.084 L 165.35 180.084 C 165.525 178.442 166.919 177.159 168.607 177.159 C 170.414 177.159 171.883 178.63 171.883 180.435 C 171.883 182.241 170.414 183.712 168.607 183.712 Z M 168.607 177.862 C 167.188 177.862 166.033 179.017 166.033 180.436 C 166.033 181.856 167.188 183.01 168.607 183.01 C 170.027 183.01 171.181 181.856 171.181 180.436 C 171.181 179.017 170.027 177.862 168.607 177.862 Z M 157.883 177.862 C 156.463 177.862 155.309 179.017 155.309 180.436 C 155.309 181.856 156.464 183.01 157.883 183.01 C 159.302 183.01 160.457 181.856 160.457 180.436 C 160.457 179.017 159.302 177.862 157.883 177.862 Z M 157.883 167.138 C 156.463 167.138 155.309 168.293 155.309 169.712 C 155.309 171.131 156.464 172.286 157.883 172.286 C 159.302 172.286 160.457 171.131 160.457 169.712 C 160.457 168.292 159.302 167.138 157.883 167.138 Z M 157.883 156.414 C 156.463 156.414 155.309 157.569 155.309 158.988 C 155.309 160.406 156.463 161.562 157.883 161.562 C 159.302 161.562 160.457 160.406 160.457 158.988 C 160.457 157.569 159.302 156.414 157.883 156.414 Z M 147.159 156.414 C 145.739 156.414 144.585 157.568 144.585 158.988 C 144.585 160.407 145.739 161.562 147.159 161.562 C 148.578 161.562 149.733 160.407 149.733 158.988 C 149.733 157.568 148.578 156.414 147.159 156.414 Z M 147.159 183.712 C 145.352 183.712 143.883 182.242 143.883 180.436 C 143.883 178.631 145.352 177.16 147.159 177.16 C 148.965 177.16 150.435 178.63 150.435 180.436 C 150.435 182.243 148.965 183.712 147.159 183.712 Z M 147.159 177.862 C 145.739 177.862 144.585 179.017 144.585 180.436 C 144.585 181.856 145.739 183.01 147.159 183.01 C 148.578 183.01 149.733 181.856 149.733 180.436 C 149.733 179.017 148.578 177.862 147.159 177.862 Z M 168.607 172.988 C 166.801 172.988 165.331 171.518 165.331 169.712 C 165.331 167.906 166.802 166.436 168.607 166.436 C 170.413 166.436 171.883 167.905 171.883 169.712 C 171.883 171.519 170.414 172.988 168.607 172.988 Z M 168.607 167.138 C 167.188 167.138 166.033 168.293 166.033 169.712 C 166.033 171.131 167.188 172.286 168.607 172.286 C 170.027 172.286 171.181 171.131 171.181 169.712 C 171.181 168.292 170.027 167.138 168.607 167.138 Z M 147.159 172.988 C 145.352 172.988 143.883 171.518 143.883 169.712 C 143.883 167.906 145.352 166.436 147.159 166.436 C 148.965 166.436 150.435 167.905 150.435 169.712 C 150.435 171.519 148.965 172.988 147.159 172.988 Z M 147.159 167.138 C 145.739 167.138 144.585 168.293 144.585 169.712 C 144.585 171.131 145.74 172.286 147.159 172.286 C 148.577 172.286 149.733 171.131 149.733 169.712 C 149.733 168.292 148.578 167.138 147.159 167.138 Z M 168.607 162.264 C 166.801 162.264 165.331 160.794 165.331 158.988 C 165.331 157.181 166.801 155.712 168.607 155.712 C 170.414 155.712 171.883 157.181 171.883 158.988 C 171.883 160.794 170.414 162.264 168.607 162.264 Z M 168.607 156.414 C 167.188 156.414 166.033 157.569 166.033 158.988 C 166.033 160.406 167.188 161.562 168.607 161.562 C 170.027 161.562 171.181 160.407 171.181 158.988 C 171.181 157.568 170.027 156.414 168.607 156.414 Z" style="fill: rgb(102, 102, 102);"/>
</svg>
