<?xml version="1.0" encoding="utf-8"?>
<svg viewBox="195.134 183.579 28 22.462" xmlns="http://www.w3.org/2000/svg"  height="28" width="28">
  <g transform="matrix(0.065116, 0, 0, 0.065116, 195.134186, 180.810425)">
    <path d="M230.39,255.512c-5.879-5.881-13.548-8.875-21.256-9c29.804-44.402,25.106-105.25-14.105-144.465 c-44.557-44.555-117.054-44.555-161.61,0c-44.558,44.557-44.558,117.059,0,161.613c39.212,39.213,100.059,43.908,144.463,14.105 c0.124,7.705,3.117,15.377,8.998,21.256l79.443,79.445c12.017,12.016,31.495,12.016,43.512,0c12.018-12.018,12.018-31.494,0-43.512 L230.39,255.512z M170.165,238.797c-30.845,30.848-81.039,30.848-111.884,0c-30.848-30.848-30.848-81.037,0-111.887 c30.845-30.846,81.039-30.846,111.884,0C201.013,157.76,201.013,207.949,170.165,238.797z" style="fill: rgb(204, 204, 204);"/>
    <path d="M225.549,112.678h39.852c4.603,0,9.014-1.826,12.266-5.08l30.385-30.383h104.603c9.58,0,17.347-7.766,17.347-17.348 c0-9.578-7.767-17.346-17.347-17.346H300.866c-4.603,0-9.015,1.826-12.267,5.082l-30.384,30.381h-64.435 c4.724,3.6,9.244,7.529,13.515,11.799C214.335,96.826,220.417,104.52,225.549,112.678z" style="fill: rgb(204, 204, 204);"/>
    <path d="M412.654,204.422h-70.152L315.68,189c-2.631-1.512-5.612-2.309-8.646-2.309h-61.325 c-0.329,11.684-2.198,23.355-5.652,34.691h62.345l26.822,15.424c2.633,1.512,5.614,2.309,8.647,2.309h74.783 c9.58,0,17.347-7.768,17.347-17.348C430,212.188,422.234,204.422,412.654,204.422z" style="fill: rgb(204, 204, 204);"/>
    <path d="M411.883,130.797H235.07c4.773,11.121,7.955,22.805,9.537,34.691h167.276c9.579,0,17.346-7.766,17.346-17.346 C429.229,138.563,421.462,130.797,411.883,130.797z" style="fill: rgb(204, 204, 204);"/>
  </g>
</svg>
