<svg width="60" height="61" viewBox="0 0 60 61" fill="none" xmlns="http://www.w3.org/2000/svg">
    <path d="M28.76 60.2415L25.1079 41.2996L9.28232 52.0126L8.06496 50.9258L18.5646 34.7786L0 31.0523V29.3444L18.5646 25.4629L8.06496 9.47095L9.28232 8.22886L25.1079 18.9419L28.76 0H30.4338L34.0859 18.9419L49.9115 8.22886L51.1288 9.47095L40.6292 25.4629L59.1938 29.3444V31.0523L40.6292 34.7786L51.1288 50.9258L49.9115 52.0126L34.0859 41.2996L30.4338 60.2415H28.76ZM11.5649 48.4416L25.1079 39.5917L27.8469 31.8286L11.5649 48.4416ZM19.9342 33.5365L27.2383 30.1207H4.10857L19.9342 33.5365ZM29.5208 56.0494L32.8685 40.0575L29.5208 32.6049V56.0494ZM27.8469 28.4129L11.5649 11.7999L20.3907 25.4629L27.8469 28.4129ZM47.6289 48.4416L38.8031 34.7786L31.3468 31.8286L47.6289 48.4416ZM29.5208 27.6365V4.19206L26.3253 20.184L29.5208 27.6365ZM31.9555 30.1207H55.0852L39.2596 26.8602L31.9555 30.1207ZM31.3468 28.4129L47.6289 11.7999L34.0859 20.805L31.3468 28.4129Z" fill="#060606" />
</svg>