<svg width="40" height="61" viewBox="0 0 40 61" fill="none" xmlns="http://www.w3.org/2000/svg">
<path d="M13.1325 40.3688C13.78 40.3688 14.3758 40.4854 14.9197 40.7185C15.4896 40.9775 16.0076 41.3272 16.4739 41.7675C16.9142 42.182 17.2639 42.7 17.5229 43.3217C17.7302 43.8915 17.8338 44.5002 17.8338 45.1478C17.8338 45.7694 17.7302 46.3652 17.5229 46.935C17.2639 47.5567 16.9142 48.0747 16.4739 48.4892C16.0076 48.9295 15.4896 49.2792 14.9197 49.5382C14.3758 49.7713 13.8318 49.8879 13.2879 49.8879C12.6921 49.8879 12.187 49.9786 11.7726 50.1599C11.3841 50.3153 11.0214 50.5614 10.6847 50.8981C10.3221 51.2348 10.0631 51.6104 9.90764 52.0248C9.72633 52.4393 9.63567 52.8926 9.63567 53.3847C9.63567 53.851 9.73928 54.3042 9.9465 54.7446C10.1537 55.2108 10.4257 55.5864 10.7624 55.8713C11.1769 56.2599 11.5524 56.5189 11.8892 56.6484C12.3813 56.8297 12.9641 56.9204 13.6376 56.9204C14.9845 56.9204 16.3055 56.6355 17.6006 56.0656C19.1289 55.3662 20.3722 54.5503 21.3306 53.6178C22.4962 52.4263 23.338 51.183 23.8561 49.8879C24.4259 48.4633 24.7108 47.0386 24.7108 45.614V34.5408H14.9975C10.335 34.5408 6.57919 33.2068 3.72994 30.5389C1.24331 28.1817 0 25.0735 0 21.214C0 17.2251 1.37282 14.0132 4.11847 11.5783C6.86412 9.11762 10.4904 7.88726 14.9975 7.88726H24.7108V1.55414L29.1401 0V7.88726H39.9025L35.4733 11.7726H29.1401V45.2643C29.1401 47.4919 28.7516 49.4864 27.9745 51.2478C27.0679 53.3459 25.9671 55.0684 24.672 56.4153C23.2732 57.8917 21.7321 59.0314 20.0484 59.8344C18.3907 60.6115 16.8106 61 15.3083 61C13.0807 61 11.2546 60.741 9.82994 60.2229C8.3276 59.679 7.11019 58.9278 6.17771 57.9694C5.11571 56.8815 4.35159 55.7677 3.88535 54.628C3.39321 53.3847 3.14713 52.0896 3.14713 50.7427C3.14713 49.1108 3.39321 47.7769 3.88535 46.7408C4.4293 45.6788 5.19342 44.565 6.17771 43.3994C6.98068 42.4928 8.09448 41.7416 9.51911 41.1459C10.7106 40.6278 11.9151 40.3688 13.1325 40.3688ZM24.7108 30.6554V11.7726H18.6885V30.6554H24.7108Z" fill="#060606"/>
</svg>
